<mxfile host="app.diagrams.net" agent="Mozilla/5.0 (X11; Linux x86_64) AppleWebKit/537.36 (KHTML, like Gecko) Chrome/115.0.0.0 Safari/537.36" version="24.8.0">
  <diagram name="Page-1" id="CUNVGGAH_TLNrAHx7HYc">
    <mxGraphModel dx="1082" dy="491" grid="1" gridSize="10" guides="1" tooltips="1" connect="1" arrows="1" fold="1" page="1" pageScale="1" pageWidth="1169" pageHeight="827" math="0" shadow="0">
      <root>
        <mxCell id="0" />
        <mxCell id="1" parent="0" />
        <mxCell id="rurIsRCA4eeCTm9-6xiH-1" value="Start" style="ellipse;whiteSpace=wrap;html=1;" vertex="1" parent="1">
          <mxGeometry x="470" y="10" width="100" height="40" as="geometry" />
        </mxCell>
        <mxCell id="rurIsRCA4eeCTm9-6xiH-199" value="Create Vendor" style="rounded=1;whiteSpace=wrap;html=1;fontSize=12;glass=0;strokeWidth=1;shadow=0;" vertex="1" parent="1">
          <mxGeometry x="310" y="125" width="100" height="40" as="geometry" />
        </mxCell>
        <mxCell id="rurIsRCA4eeCTm9-6xiH-207" value="" style="endArrow=classic;html=1;rounded=0;" edge="1" parent="1">
          <mxGeometry width="50" height="50" relative="1" as="geometry">
            <mxPoint x="359.5" y="165" as="sourcePoint" />
            <mxPoint x="360" y="200" as="targetPoint" />
          </mxGeometry>
        </mxCell>
        <mxCell id="rurIsRCA4eeCTm9-6xiH-210" value="Goes for Approval to Department Manager" style="rounded=1;whiteSpace=wrap;html=1;" vertex="1" parent="1">
          <mxGeometry x="300" y="200" width="120" height="50" as="geometry" />
        </mxCell>
        <mxCell id="rurIsRCA4eeCTm9-6xiH-219" style="edgeStyle=orthogonalEdgeStyle;rounded=0;orthogonalLoop=1;jettySize=auto;html=1;exitX=0;exitY=0.5;exitDx=0;exitDy=0;entryX=1;entryY=0.5;entryDx=0;entryDy=0;" edge="1" parent="1" source="rurIsRCA4eeCTm9-6xiH-211" target="rurIsRCA4eeCTm9-6xiH-212">
          <mxGeometry relative="1" as="geometry" />
        </mxCell>
        <mxCell id="rurIsRCA4eeCTm9-6xiH-211" value="Vendor Approved" style="rhombus;whiteSpace=wrap;html=1;shadow=0;fontFamily=Helvetica;fontSize=12;align=center;strokeWidth=1;spacing=6;spacingTop=-4;" vertex="1" parent="1">
          <mxGeometry x="307.5" y="280" width="100" height="80" as="geometry" />
        </mxCell>
        <mxCell id="rurIsRCA4eeCTm9-6xiH-212" value="Rejected&lt;div&gt;Vendor&lt;/div&gt;" style="rounded=1;whiteSpace=wrap;html=1;fontSize=12;glass=0;strokeWidth=1;shadow=0;" vertex="1" parent="1">
          <mxGeometry x="190" y="300" width="70" height="40" as="geometry" />
        </mxCell>
        <mxCell id="rurIsRCA4eeCTm9-6xiH-214" value="No" style="text;html=1;align=center;verticalAlign=middle;resizable=0;points=[];autosize=1;strokeColor=none;fillColor=none;" vertex="1" parent="1">
          <mxGeometry x="270" y="300" width="40" height="30" as="geometry" />
        </mxCell>
        <mxCell id="rurIsRCA4eeCTm9-6xiH-250" style="edgeStyle=orthogonalEdgeStyle;rounded=0;orthogonalLoop=1;jettySize=auto;html=1;exitX=0.5;exitY=1;exitDx=0;exitDy=0;entryX=0.5;entryY=0;entryDx=0;entryDy=0;" edge="1" parent="1" source="rurIsRCA4eeCTm9-6xiH-215" target="rurIsRCA4eeCTm9-6xiH-248">
          <mxGeometry relative="1" as="geometry" />
        </mxCell>
        <mxCell id="rurIsRCA4eeCTm9-6xiH-281" style="edgeStyle=orthogonalEdgeStyle;rounded=0;orthogonalLoop=1;jettySize=auto;html=1;exitX=0;exitY=0.5;exitDx=0;exitDy=0;entryX=0.4;entryY=0;entryDx=0;entryDy=0;entryPerimeter=0;" edge="1" parent="1" source="rurIsRCA4eeCTm9-6xiH-215" target="rurIsRCA4eeCTm9-6xiH-428">
          <mxGeometry relative="1" as="geometry">
            <mxPoint x="120" y="652" as="targetPoint" />
          </mxGeometry>
        </mxCell>
        <mxCell id="rurIsRCA4eeCTm9-6xiH-215" value="Vendor Created" style="rounded=1;whiteSpace=wrap;html=1;fontSize=12;glass=0;strokeWidth=1;shadow=0;" vertex="1" parent="1">
          <mxGeometry x="322.5" y="390" width="70" height="40" as="geometry" />
        </mxCell>
        <mxCell id="rurIsRCA4eeCTm9-6xiH-216" value="" style="endArrow=classic;html=1;rounded=0;" edge="1" parent="1">
          <mxGeometry width="50" height="50" relative="1" as="geometry">
            <mxPoint x="357.5" y="360" as="sourcePoint" />
            <mxPoint x="357.5" y="390" as="targetPoint" />
          </mxGeometry>
        </mxCell>
        <mxCell id="rurIsRCA4eeCTm9-6xiH-217" value="Yes" style="text;html=1;align=center;verticalAlign=middle;resizable=0;points=[];autosize=1;strokeColor=none;fillColor=none;" vertex="1" parent="1">
          <mxGeometry x="322.5" y="360" width="40" height="30" as="geometry" />
        </mxCell>
        <mxCell id="rurIsRCA4eeCTm9-6xiH-218" value="" style="endArrow=classic;html=1;rounded=0;" edge="1" parent="1">
          <mxGeometry width="50" height="50" relative="1" as="geometry">
            <mxPoint x="359.5" y="255" as="sourcePoint" />
            <mxPoint x="359.5" y="280" as="targetPoint" />
          </mxGeometry>
        </mxCell>
        <mxCell id="rurIsRCA4eeCTm9-6xiH-239" value="End" style="ellipse;whiteSpace=wrap;html=1;" vertex="1" parent="1">
          <mxGeometry x="90" y="302" width="60" height="36" as="geometry" />
        </mxCell>
        <mxCell id="rurIsRCA4eeCTm9-6xiH-240" value="" style="endArrow=classic;html=1;rounded=0;" edge="1" parent="1">
          <mxGeometry width="50" height="50" relative="1" as="geometry">
            <mxPoint x="190" y="319.5" as="sourcePoint" />
            <mxPoint x="150" y="319.5" as="targetPoint" />
          </mxGeometry>
        </mxCell>
        <mxCell id="rurIsRCA4eeCTm9-6xiH-263" style="edgeStyle=orthogonalEdgeStyle;rounded=0;orthogonalLoop=1;jettySize=auto;html=1;exitX=0.5;exitY=1;exitDx=0;exitDy=0;entryX=0.5;entryY=0;entryDx=0;entryDy=0;" edge="1" parent="1" source="rurIsRCA4eeCTm9-6xiH-248" target="rurIsRCA4eeCTm9-6xiH-251">
          <mxGeometry relative="1" as="geometry" />
        </mxCell>
        <mxCell id="rurIsRCA4eeCTm9-6xiH-248" value="Delete Vendor" style="rounded=1;whiteSpace=wrap;html=1;fontSize=12;glass=0;strokeWidth=1;shadow=0;" vertex="1" parent="1">
          <mxGeometry x="322.5" y="470" width="70" height="40" as="geometry" />
        </mxCell>
        <mxCell id="rurIsRCA4eeCTm9-6xiH-251" value="Goes for Approval to Department Manager" style="rounded=1;whiteSpace=wrap;html=1;" vertex="1" parent="1">
          <mxGeometry x="297.5" y="550" width="120" height="50" as="geometry" />
        </mxCell>
        <mxCell id="rurIsRCA4eeCTm9-6xiH-252" style="edgeStyle=orthogonalEdgeStyle;rounded=0;orthogonalLoop=1;jettySize=auto;html=1;exitX=0;exitY=0.5;exitDx=0;exitDy=0;entryX=1;entryY=0.5;entryDx=0;entryDy=0;" edge="1" parent="1" source="rurIsRCA4eeCTm9-6xiH-253" target="rurIsRCA4eeCTm9-6xiH-254">
          <mxGeometry relative="1" as="geometry" />
        </mxCell>
        <mxCell id="rurIsRCA4eeCTm9-6xiH-253" value="Deletion&amp;nbsp;&lt;div&gt;Approved&lt;/div&gt;" style="rhombus;whiteSpace=wrap;html=1;shadow=0;fontFamily=Helvetica;fontSize=12;align=center;strokeWidth=1;spacing=6;spacingTop=-4;" vertex="1" parent="1">
          <mxGeometry x="307.5" y="630" width="100" height="80" as="geometry" />
        </mxCell>
        <mxCell id="rurIsRCA4eeCTm9-6xiH-254" value="Vendor&amp;nbsp;&lt;div&gt;Deleted&lt;/div&gt;" style="rounded=1;whiteSpace=wrap;html=1;fontSize=12;glass=0;strokeWidth=1;shadow=0;" vertex="1" parent="1">
          <mxGeometry x="190" y="650" width="70" height="40" as="geometry" />
        </mxCell>
        <mxCell id="rurIsRCA4eeCTm9-6xiH-255" value="No" style="text;html=1;align=center;verticalAlign=middle;resizable=0;points=[];autosize=1;strokeColor=none;fillColor=none;" vertex="1" parent="1">
          <mxGeometry x="352.5" y="710" width="40" height="30" as="geometry" />
        </mxCell>
        <mxCell id="rurIsRCA4eeCTm9-6xiH-429" style="edgeStyle=orthogonalEdgeStyle;rounded=0;orthogonalLoop=1;jettySize=auto;html=1;exitX=0;exitY=0.5;exitDx=0;exitDy=0;entryX=1;entryY=0.5;entryDx=0;entryDy=0;" edge="1" parent="1" source="rurIsRCA4eeCTm9-6xiH-256" target="rurIsRCA4eeCTm9-6xiH-428">
          <mxGeometry relative="1" as="geometry" />
        </mxCell>
        <mxCell id="rurIsRCA4eeCTm9-6xiH-256" value="Vendor &lt;br&gt;Exist" style="rounded=1;whiteSpace=wrap;html=1;fontSize=12;glass=0;strokeWidth=1;shadow=0;" vertex="1" parent="1">
          <mxGeometry x="322.5" y="740" width="70" height="40" as="geometry" />
        </mxCell>
        <mxCell id="rurIsRCA4eeCTm9-6xiH-257" value="" style="endArrow=classic;html=1;rounded=0;" edge="1" parent="1">
          <mxGeometry width="50" height="50" relative="1" as="geometry">
            <mxPoint x="357.5" y="710" as="sourcePoint" />
            <mxPoint x="357.5" y="740" as="targetPoint" />
          </mxGeometry>
        </mxCell>
        <mxCell id="rurIsRCA4eeCTm9-6xiH-258" value="Yes" style="text;html=1;align=center;verticalAlign=middle;resizable=0;points=[];autosize=1;strokeColor=none;fillColor=none;" vertex="1" parent="1">
          <mxGeometry x="267.5" y="650" width="40" height="30" as="geometry" />
        </mxCell>
        <mxCell id="rurIsRCA4eeCTm9-6xiH-259" value="" style="endArrow=classic;html=1;rounded=0;" edge="1" parent="1">
          <mxGeometry width="50" height="50" relative="1" as="geometry">
            <mxPoint x="359.5" y="605" as="sourcePoint" />
            <mxPoint x="359.5" y="630" as="targetPoint" />
          </mxGeometry>
        </mxCell>
        <mxCell id="rurIsRCA4eeCTm9-6xiH-334" value="" style="strokeWidth=2;html=1;shape=mxgraph.flowchart.annotation_1;align=left;pointerEvents=1;direction=south;" vertex="1" parent="1">
          <mxGeometry x="352.5" y="100" width="350" height="25" as="geometry" />
        </mxCell>
        <mxCell id="rurIsRCA4eeCTm9-6xiH-431" style="edgeStyle=orthogonalEdgeStyle;rounded=0;orthogonalLoop=1;jettySize=auto;html=1;exitX=0.5;exitY=1;exitDx=0;exitDy=0;" edge="1" parent="1" source="rurIsRCA4eeCTm9-6xiH-428" target="rurIsRCA4eeCTm9-6xiH-430">
          <mxGeometry relative="1" as="geometry" />
        </mxCell>
        <mxCell id="rurIsRCA4eeCTm9-6xiH-428" value="Vendor &lt;br&gt;Rating" style="rounded=1;whiteSpace=wrap;html=1;fontSize=12;glass=0;strokeWidth=1;shadow=0;" vertex="1" parent="1">
          <mxGeometry x="90" y="740" width="70" height="40" as="geometry" />
        </mxCell>
        <mxCell id="rurIsRCA4eeCTm9-6xiH-430" value="End" style="ellipse;whiteSpace=wrap;html=1;" vertex="1" parent="1">
          <mxGeometry x="95" y="809" width="60" height="36" as="geometry" />
        </mxCell>
        <mxCell id="rurIsRCA4eeCTm9-6xiH-515" value="Goes for Approval to Department Manager" style="rounded=1;whiteSpace=wrap;html=1;" vertex="1" parent="1">
          <mxGeometry x="500" y="925" width="120" height="50" as="geometry" />
        </mxCell>
        <mxCell id="rurIsRCA4eeCTm9-6xiH-516" value="Create Contract" style="rounded=1;whiteSpace=wrap;html=1;fontSize=12;glass=0;strokeWidth=1;shadow=0;" vertex="1" parent="1">
          <mxGeometry x="651.5" y="125" width="100" height="40" as="geometry" />
        </mxCell>
        <mxCell id="rurIsRCA4eeCTm9-6xiH-517" value="" style="endArrow=classic;html=1;rounded=0;" edge="1" parent="1">
          <mxGeometry width="50" height="50" relative="1" as="geometry">
            <mxPoint x="701" y="165" as="sourcePoint" />
            <mxPoint x="701.5" y="200" as="targetPoint" />
          </mxGeometry>
        </mxCell>
        <mxCell id="rurIsRCA4eeCTm9-6xiH-518" value="Goes for Approval to Department Manager" style="rounded=1;whiteSpace=wrap;html=1;" vertex="1" parent="1">
          <mxGeometry x="642.5" y="200" width="120" height="50" as="geometry" />
        </mxCell>
        <mxCell id="rurIsRCA4eeCTm9-6xiH-519" style="edgeStyle=orthogonalEdgeStyle;rounded=0;orthogonalLoop=1;jettySize=auto;html=1;exitX=0;exitY=0.5;exitDx=0;exitDy=0;entryX=1;entryY=0.5;entryDx=0;entryDy=0;" edge="1" parent="1" source="rurIsRCA4eeCTm9-6xiH-520" target="rurIsRCA4eeCTm9-6xiH-521">
          <mxGeometry relative="1" as="geometry" />
        </mxCell>
        <mxCell id="rurIsRCA4eeCTm9-6xiH-520" value="Contract Approved" style="rhombus;whiteSpace=wrap;html=1;shadow=0;fontFamily=Helvetica;fontSize=12;align=center;strokeWidth=1;spacing=6;spacingTop=-4;" vertex="1" parent="1">
          <mxGeometry x="650" y="280" width="100" height="80" as="geometry" />
        </mxCell>
        <mxCell id="rurIsRCA4eeCTm9-6xiH-521" value="Rejected&lt;div&gt;Contract&lt;/div&gt;" style="rounded=1;whiteSpace=wrap;html=1;fontSize=12;glass=0;strokeWidth=1;shadow=0;" vertex="1" parent="1">
          <mxGeometry x="532.5" y="300" width="70" height="40" as="geometry" />
        </mxCell>
        <mxCell id="rurIsRCA4eeCTm9-6xiH-522" value="No" style="text;html=1;align=center;verticalAlign=middle;resizable=0;points=[];autosize=1;strokeColor=none;fillColor=none;" vertex="1" parent="1">
          <mxGeometry x="612.5" y="300" width="40" height="30" as="geometry" />
        </mxCell>
        <mxCell id="rurIsRCA4eeCTm9-6xiH-619" style="edgeStyle=orthogonalEdgeStyle;rounded=0;orthogonalLoop=1;jettySize=auto;html=1;exitX=1;exitY=0.75;exitDx=0;exitDy=0;entryX=0;entryY=0.75;entryDx=0;entryDy=0;" edge="1" parent="1" source="rurIsRCA4eeCTm9-6xiH-525" target="rurIsRCA4eeCTm9-6xiH-611">
          <mxGeometry relative="1" as="geometry" />
        </mxCell>
        <mxCell id="rurIsRCA4eeCTm9-6xiH-636" style="edgeStyle=orthogonalEdgeStyle;rounded=0;orthogonalLoop=1;jettySize=auto;html=1;exitX=1;exitY=0.5;exitDx=0;exitDy=0;entryX=0;entryY=0.5;entryDx=0;entryDy=0;" edge="1" parent="1" source="rurIsRCA4eeCTm9-6xiH-525" target="rurIsRCA4eeCTm9-6xiH-628">
          <mxGeometry relative="1" as="geometry" />
        </mxCell>
        <mxCell id="rurIsRCA4eeCTm9-6xiH-525" value="Contract Created" style="rounded=1;whiteSpace=wrap;html=1;fontSize=12;glass=0;strokeWidth=1;shadow=0;" vertex="1" parent="1">
          <mxGeometry x="630" y="390" width="135" height="40" as="geometry" />
        </mxCell>
        <mxCell id="rurIsRCA4eeCTm9-6xiH-526" value="" style="endArrow=classic;html=1;rounded=0;" edge="1" parent="1">
          <mxGeometry width="50" height="50" relative="1" as="geometry">
            <mxPoint x="700" y="360" as="sourcePoint" />
            <mxPoint x="700" y="390" as="targetPoint" />
          </mxGeometry>
        </mxCell>
        <mxCell id="rurIsRCA4eeCTm9-6xiH-527" value="Yes" style="text;html=1;align=center;verticalAlign=middle;resizable=0;points=[];autosize=1;strokeColor=none;fillColor=none;" vertex="1" parent="1">
          <mxGeometry x="665" y="360" width="40" height="30" as="geometry" />
        </mxCell>
        <mxCell id="rurIsRCA4eeCTm9-6xiH-528" value="" style="endArrow=classic;html=1;rounded=0;" edge="1" parent="1">
          <mxGeometry width="50" height="50" relative="1" as="geometry">
            <mxPoint x="702" y="255" as="sourcePoint" />
            <mxPoint x="702" y="280" as="targetPoint" />
          </mxGeometry>
        </mxCell>
        <mxCell id="rurIsRCA4eeCTm9-6xiH-529" value="" style="endArrow=classic;html=1;rounded=0;" edge="1" parent="1">
          <mxGeometry width="50" height="50" relative="1" as="geometry">
            <mxPoint x="562.5" y="340" as="sourcePoint" />
            <mxPoint x="563" y="370" as="targetPoint" />
          </mxGeometry>
        </mxCell>
        <mxCell id="rurIsRCA4eeCTm9-6xiH-530" value="End" style="ellipse;whiteSpace=wrap;html=1;" vertex="1" parent="1">
          <mxGeometry x="532.5" y="370" width="60" height="36" as="geometry" />
        </mxCell>
        <mxCell id="rurIsRCA4eeCTm9-6xiH-531" value="" style="endArrow=classic;html=1;rounded=0;" edge="1" parent="1">
          <mxGeometry width="50" height="50" relative="1" as="geometry">
            <mxPoint x="692.5" y="100" as="sourcePoint" />
            <mxPoint x="692.5" y="100" as="targetPoint" />
          </mxGeometry>
        </mxCell>
        <mxCell id="rurIsRCA4eeCTm9-6xiH-534" value="" style="strokeWidth=2;html=1;shape=mxgraph.flowchart.annotation_1;align=left;pointerEvents=1;direction=south;" vertex="1" parent="1">
          <mxGeometry x="551.25" y="474" width="302.5" height="25" as="geometry" />
        </mxCell>
        <mxCell id="rurIsRCA4eeCTm9-6xiH-535" value="One Financial Year" style="text;html=1;align=center;verticalAlign=middle;resizable=0;points=[];autosize=1;strokeColor=none;fillColor=none;" vertex="1" parent="1">
          <mxGeometry x="570" y="440" width="120" height="30" as="geometry" />
        </mxCell>
        <mxCell id="rurIsRCA4eeCTm9-6xiH-536" value="Two Financial Year" style="text;html=1;align=center;verticalAlign=middle;resizable=0;points=[];autosize=1;strokeColor=none;fillColor=none;" vertex="1" parent="1">
          <mxGeometry x="712.5" y="440" width="120" height="30" as="geometry" />
        </mxCell>
        <mxCell id="rurIsRCA4eeCTm9-6xiH-537" value="Create all Included Invoice" style="rounded=1;whiteSpace=wrap;html=1;fontSize=12;glass=0;strokeWidth=1;shadow=0;" vertex="1" parent="1">
          <mxGeometry x="512.5" y="500" width="100" height="40" as="geometry" />
        </mxCell>
        <mxCell id="rurIsRCA4eeCTm9-6xiH-538" value="" style="endArrow=classic;html=1;rounded=0;" edge="1" parent="1">
          <mxGeometry width="50" height="50" relative="1" as="geometry">
            <mxPoint x="562" y="540" as="sourcePoint" />
            <mxPoint x="562.5" y="575" as="targetPoint" />
          </mxGeometry>
        </mxCell>
        <mxCell id="rurIsRCA4eeCTm9-6xiH-539" value="Goes for Approval to Department Manager" style="rounded=1;whiteSpace=wrap;html=1;" vertex="1" parent="1">
          <mxGeometry x="502.5" y="575" width="120" height="50" as="geometry" />
        </mxCell>
        <mxCell id="rurIsRCA4eeCTm9-6xiH-540" style="edgeStyle=orthogonalEdgeStyle;rounded=0;orthogonalLoop=1;jettySize=auto;html=1;exitX=1;exitY=0.5;exitDx=0;exitDy=0;entryX=0;entryY=0.5;entryDx=0;entryDy=0;" edge="1" parent="1" source="rurIsRCA4eeCTm9-6xiH-541" target="rurIsRCA4eeCTm9-6xiH-542">
          <mxGeometry relative="1" as="geometry" />
        </mxCell>
        <mxCell id="rurIsRCA4eeCTm9-6xiH-541" value="Invoice&amp;nbsp;&lt;div&gt;Approved&lt;/div&gt;" style="rhombus;whiteSpace=wrap;html=1;shadow=0;fontFamily=Helvetica;fontSize=12;align=center;strokeWidth=1;spacing=6;spacingTop=-4;" vertex="1" parent="1">
          <mxGeometry x="510" y="655" width="100" height="80" as="geometry" />
        </mxCell>
        <mxCell id="rurIsRCA4eeCTm9-6xiH-542" value="Rejected&lt;div&gt;Invoice&lt;/div&gt;" style="rounded=1;whiteSpace=wrap;html=1;fontSize=12;glass=0;strokeWidth=1;shadow=0;" vertex="1" parent="1">
          <mxGeometry x="647.5" y="675" width="70" height="40" as="geometry" />
        </mxCell>
        <mxCell id="rurIsRCA4eeCTm9-6xiH-543" value="No" style="text;html=1;align=center;verticalAlign=middle;resizable=0;points=[];autosize=1;strokeColor=none;fillColor=none;" vertex="1" parent="1">
          <mxGeometry x="602.5" y="675" width="40" height="30" as="geometry" />
        </mxCell>
        <mxCell id="rurIsRCA4eeCTm9-6xiH-544" style="edgeStyle=orthogonalEdgeStyle;rounded=0;orthogonalLoop=1;jettySize=auto;html=1;exitX=0.5;exitY=1;exitDx=0;exitDy=0;entryX=0.5;entryY=0;entryDx=0;entryDy=0;" edge="1" parent="1" source="rurIsRCA4eeCTm9-6xiH-546" target="rurIsRCA4eeCTm9-6xiH-551">
          <mxGeometry relative="1" as="geometry" />
        </mxCell>
        <mxCell id="rurIsRCA4eeCTm9-6xiH-545" style="edgeStyle=orthogonalEdgeStyle;rounded=0;orthogonalLoop=1;jettySize=auto;html=1;exitX=1;exitY=0.5;exitDx=0;exitDy=0;entryX=0.5;entryY=0;entryDx=0;entryDy=0;" edge="1" parent="1" source="rurIsRCA4eeCTm9-6xiH-546" target="rurIsRCA4eeCTm9-6xiH-561">
          <mxGeometry relative="1" as="geometry" />
        </mxCell>
        <mxCell id="rurIsRCA4eeCTm9-6xiH-546" value="Invoice Created" style="rounded=1;whiteSpace=wrap;html=1;fontSize=12;glass=0;strokeWidth=1;shadow=0;" vertex="1" parent="1">
          <mxGeometry x="525" y="765" width="70" height="40" as="geometry" />
        </mxCell>
        <mxCell id="rurIsRCA4eeCTm9-6xiH-547" value="" style="endArrow=classic;html=1;rounded=0;" edge="1" parent="1">
          <mxGeometry width="50" height="50" relative="1" as="geometry">
            <mxPoint x="560" y="735" as="sourcePoint" />
            <mxPoint x="560" y="765" as="targetPoint" />
          </mxGeometry>
        </mxCell>
        <mxCell id="rurIsRCA4eeCTm9-6xiH-548" value="Yes" style="text;html=1;align=center;verticalAlign=middle;resizable=0;points=[];autosize=1;strokeColor=none;fillColor=none;" vertex="1" parent="1">
          <mxGeometry x="525" y="735" width="40" height="30" as="geometry" />
        </mxCell>
        <mxCell id="rurIsRCA4eeCTm9-6xiH-549" value="" style="endArrow=classic;html=1;rounded=0;" edge="1" parent="1">
          <mxGeometry width="50" height="50" relative="1" as="geometry">
            <mxPoint x="562" y="630" as="sourcePoint" />
            <mxPoint x="562" y="655" as="targetPoint" />
          </mxGeometry>
        </mxCell>
        <mxCell id="rurIsRCA4eeCTm9-6xiH-550" style="edgeStyle=orthogonalEdgeStyle;rounded=0;orthogonalLoop=1;jettySize=auto;html=1;exitX=0.5;exitY=1;exitDx=0;exitDy=0;entryX=0.5;entryY=0;entryDx=0;entryDy=0;" edge="1" parent="1" source="rurIsRCA4eeCTm9-6xiH-551">
          <mxGeometry relative="1" as="geometry">
            <mxPoint x="560.5" y="925" as="targetPoint" />
          </mxGeometry>
        </mxCell>
        <mxCell id="rurIsRCA4eeCTm9-6xiH-551" value="Delete&amp;nbsp;&lt;div&gt;Invoice&lt;/div&gt;" style="rounded=1;whiteSpace=wrap;html=1;fontSize=12;glass=0;strokeWidth=1;shadow=0;" vertex="1" parent="1">
          <mxGeometry x="525" y="845" width="70" height="40" as="geometry" />
        </mxCell>
        <mxCell id="rurIsRCA4eeCTm9-6xiH-552" style="edgeStyle=orthogonalEdgeStyle;rounded=0;orthogonalLoop=1;jettySize=auto;html=1;exitX=1;exitY=0.5;exitDx=0;exitDy=0;entryX=0;entryY=0.5;entryDx=0;entryDy=0;" edge="1" parent="1" source="rurIsRCA4eeCTm9-6xiH-553" target="rurIsRCA4eeCTm9-6xiH-560">
          <mxGeometry relative="1" as="geometry" />
        </mxCell>
        <mxCell id="rurIsRCA4eeCTm9-6xiH-553" value="Deletion&amp;nbsp;&lt;div&gt;Approved&lt;/div&gt;" style="rhombus;whiteSpace=wrap;html=1;shadow=0;fontFamily=Helvetica;fontSize=12;align=center;strokeWidth=1;spacing=6;spacingTop=-4;" vertex="1" parent="1">
          <mxGeometry x="510" y="1005" width="100" height="80" as="geometry" />
        </mxCell>
        <mxCell id="rurIsRCA4eeCTm9-6xiH-554" value="No" style="text;html=1;align=center;verticalAlign=middle;resizable=0;points=[];autosize=1;strokeColor=none;fillColor=none;" vertex="1" parent="1">
          <mxGeometry x="555" y="1085" width="40" height="30" as="geometry" />
        </mxCell>
        <mxCell id="rurIsRCA4eeCTm9-6xiH-555" value="&lt;div&gt;Invoice&lt;/div&gt;Exists" style="rounded=1;whiteSpace=wrap;html=1;fontSize=12;glass=0;strokeWidth=1;shadow=0;" vertex="1" parent="1">
          <mxGeometry x="525" y="1115" width="70" height="40" as="geometry" />
        </mxCell>
        <mxCell id="rurIsRCA4eeCTm9-6xiH-556" value="" style="endArrow=classic;html=1;rounded=0;" edge="1" parent="1">
          <mxGeometry width="50" height="50" relative="1" as="geometry">
            <mxPoint x="560" y="1085" as="sourcePoint" />
            <mxPoint x="560" y="1115" as="targetPoint" />
          </mxGeometry>
        </mxCell>
        <mxCell id="rurIsRCA4eeCTm9-6xiH-557" value="Yes" style="text;html=1;align=center;verticalAlign=middle;resizable=0;points=[];autosize=1;strokeColor=none;fillColor=none;" vertex="1" parent="1">
          <mxGeometry x="612.5" y="1015" width="40" height="30" as="geometry" />
        </mxCell>
        <mxCell id="rurIsRCA4eeCTm9-6xiH-558" value="" style="endArrow=classic;html=1;rounded=0;entryX=0.5;entryY=0;entryDx=0;entryDy=0;exitX=0.5;exitY=1;exitDx=0;exitDy=0;" edge="1" parent="1" target="rurIsRCA4eeCTm9-6xiH-553">
          <mxGeometry width="50" height="50" relative="1" as="geometry">
            <mxPoint x="560.5" y="975" as="sourcePoint" />
            <mxPoint x="562" y="1005" as="targetPoint" />
          </mxGeometry>
        </mxCell>
        <mxCell id="rurIsRCA4eeCTm9-6xiH-559" style="edgeStyle=orthogonalEdgeStyle;rounded=0;orthogonalLoop=1;jettySize=auto;html=1;exitX=0.5;exitY=0;exitDx=0;exitDy=0;entryX=0.5;entryY=1;entryDx=0;entryDy=0;" edge="1" parent="1" source="rurIsRCA4eeCTm9-6xiH-560" target="rurIsRCA4eeCTm9-6xiH-561">
          <mxGeometry relative="1" as="geometry" />
        </mxCell>
        <mxCell id="rurIsRCA4eeCTm9-6xiH-560" value="&lt;div&gt;Invoice&lt;/div&gt;&lt;div&gt;Deleted&lt;/div&gt;" style="rounded=1;whiteSpace=wrap;html=1;fontSize=12;glass=0;strokeWidth=1;shadow=0;" vertex="1" parent="1">
          <mxGeometry x="662.5" y="1025" width="70" height="40" as="geometry" />
        </mxCell>
        <mxCell id="rurIsRCA4eeCTm9-6xiH-561" value="End" style="ellipse;whiteSpace=wrap;html=1;" vertex="1" parent="1">
          <mxGeometry x="667.5" y="945" width="60" height="36" as="geometry" />
        </mxCell>
        <mxCell id="rurIsRCA4eeCTm9-6xiH-562" value="Create Invoice for current Financial Year" style="rounded=1;whiteSpace=wrap;html=1;fontSize=12;glass=0;strokeWidth=1;shadow=0;" vertex="1" parent="1">
          <mxGeometry x="795" y="500" width="100" height="50" as="geometry" />
        </mxCell>
        <mxCell id="rurIsRCA4eeCTm9-6xiH-563" value="" style="endArrow=classic;html=1;rounded=0;" edge="1" parent="1">
          <mxGeometry width="50" height="50" relative="1" as="geometry">
            <mxPoint x="844.5" y="540" as="sourcePoint" />
            <mxPoint x="845" y="575" as="targetPoint" />
          </mxGeometry>
        </mxCell>
        <mxCell id="rurIsRCA4eeCTm9-6xiH-564" value="Goes for Approval to Department Manager" style="rounded=1;whiteSpace=wrap;html=1;" vertex="1" parent="1">
          <mxGeometry x="785" y="575" width="120" height="50" as="geometry" />
        </mxCell>
        <mxCell id="rurIsRCA4eeCTm9-6xiH-565" style="edgeStyle=orthogonalEdgeStyle;rounded=0;orthogonalLoop=1;jettySize=auto;html=1;exitX=1;exitY=0.5;exitDx=0;exitDy=0;entryX=0;entryY=0.5;entryDx=0;entryDy=0;" edge="1" parent="1" source="rurIsRCA4eeCTm9-6xiH-566" target="rurIsRCA4eeCTm9-6xiH-567">
          <mxGeometry relative="1" as="geometry" />
        </mxCell>
        <mxCell id="rurIsRCA4eeCTm9-6xiH-566" value="Invoice&amp;nbsp;&lt;div&gt;Approved&lt;/div&gt;" style="rhombus;whiteSpace=wrap;html=1;shadow=0;fontFamily=Helvetica;fontSize=12;align=center;strokeWidth=1;spacing=6;spacingTop=-4;" vertex="1" parent="1">
          <mxGeometry x="792.5" y="655" width="100" height="80" as="geometry" />
        </mxCell>
        <mxCell id="rurIsRCA4eeCTm9-6xiH-567" value="Rejected&lt;div&gt;Invoice&lt;/div&gt;" style="rounded=1;whiteSpace=wrap;html=1;fontSize=12;glass=0;strokeWidth=1;shadow=0;" vertex="1" parent="1">
          <mxGeometry x="930" y="675" width="70" height="40" as="geometry" />
        </mxCell>
        <mxCell id="rurIsRCA4eeCTm9-6xiH-568" value="No" style="text;html=1;align=center;verticalAlign=middle;resizable=0;points=[];autosize=1;strokeColor=none;fillColor=none;" vertex="1" parent="1">
          <mxGeometry x="885" y="675" width="40" height="30" as="geometry" />
        </mxCell>
        <mxCell id="rurIsRCA4eeCTm9-6xiH-569" style="edgeStyle=orthogonalEdgeStyle;rounded=0;orthogonalLoop=1;jettySize=auto;html=1;exitX=0.5;exitY=1;exitDx=0;exitDy=0;entryX=0.5;entryY=0;entryDx=0;entryDy=0;" edge="1" parent="1" source="rurIsRCA4eeCTm9-6xiH-571" target="rurIsRCA4eeCTm9-6xiH-576">
          <mxGeometry relative="1" as="geometry" />
        </mxCell>
        <mxCell id="rurIsRCA4eeCTm9-6xiH-570" style="edgeStyle=orthogonalEdgeStyle;rounded=0;orthogonalLoop=1;jettySize=auto;html=1;exitX=1;exitY=0.5;exitDx=0;exitDy=0;entryX=0.5;entryY=0;entryDx=0;entryDy=0;" edge="1" parent="1" source="rurIsRCA4eeCTm9-6xiH-571" target="rurIsRCA4eeCTm9-6xiH-587">
          <mxGeometry relative="1" as="geometry" />
        </mxCell>
        <mxCell id="rurIsRCA4eeCTm9-6xiH-571" value="Invoice Created" style="rounded=1;whiteSpace=wrap;html=1;fontSize=12;glass=0;strokeWidth=1;shadow=0;" vertex="1" parent="1">
          <mxGeometry x="807.5" y="765" width="70" height="40" as="geometry" />
        </mxCell>
        <mxCell id="rurIsRCA4eeCTm9-6xiH-572" value="" style="endArrow=classic;html=1;rounded=0;" edge="1" parent="1">
          <mxGeometry width="50" height="50" relative="1" as="geometry">
            <mxPoint x="842.5" y="735" as="sourcePoint" />
            <mxPoint x="842.5" y="765" as="targetPoint" />
          </mxGeometry>
        </mxCell>
        <mxCell id="rurIsRCA4eeCTm9-6xiH-573" value="Yes" style="text;html=1;align=center;verticalAlign=middle;resizable=0;points=[];autosize=1;strokeColor=none;fillColor=none;" vertex="1" parent="1">
          <mxGeometry x="807.5" y="735" width="40" height="30" as="geometry" />
        </mxCell>
        <mxCell id="rurIsRCA4eeCTm9-6xiH-574" value="" style="endArrow=classic;html=1;rounded=0;" edge="1" parent="1">
          <mxGeometry width="50" height="50" relative="1" as="geometry">
            <mxPoint x="844.5" y="630" as="sourcePoint" />
            <mxPoint x="844.5" y="655" as="targetPoint" />
          </mxGeometry>
        </mxCell>
        <mxCell id="rurIsRCA4eeCTm9-6xiH-575" style="edgeStyle=orthogonalEdgeStyle;rounded=0;orthogonalLoop=1;jettySize=auto;html=1;exitX=0.5;exitY=1;exitDx=0;exitDy=0;entryX=0.5;entryY=0;entryDx=0;entryDy=0;" edge="1" parent="1" source="rurIsRCA4eeCTm9-6xiH-576" target="rurIsRCA4eeCTm9-6xiH-577">
          <mxGeometry relative="1" as="geometry" />
        </mxCell>
        <mxCell id="rurIsRCA4eeCTm9-6xiH-576" value="Delete&amp;nbsp;&lt;div&gt;Invoice&lt;/div&gt;" style="rounded=1;whiteSpace=wrap;html=1;fontSize=12;glass=0;strokeWidth=1;shadow=0;" vertex="1" parent="1">
          <mxGeometry x="807.5" y="845" width="70" height="40" as="geometry" />
        </mxCell>
        <mxCell id="rurIsRCA4eeCTm9-6xiH-577" value="Goes for Approval to Department Manager" style="rounded=1;whiteSpace=wrap;html=1;" vertex="1" parent="1">
          <mxGeometry x="782.5" y="925" width="120" height="50" as="geometry" />
        </mxCell>
        <mxCell id="rurIsRCA4eeCTm9-6xiH-578" style="edgeStyle=orthogonalEdgeStyle;rounded=0;orthogonalLoop=1;jettySize=auto;html=1;exitX=1;exitY=0.5;exitDx=0;exitDy=0;entryX=0;entryY=0.5;entryDx=0;entryDy=0;" edge="1" parent="1" source="rurIsRCA4eeCTm9-6xiH-579" target="rurIsRCA4eeCTm9-6xiH-586">
          <mxGeometry relative="1" as="geometry" />
        </mxCell>
        <mxCell id="rurIsRCA4eeCTm9-6xiH-579" value="Deletion&amp;nbsp;&lt;div&gt;Approved&lt;/div&gt;" style="rhombus;whiteSpace=wrap;html=1;shadow=0;fontFamily=Helvetica;fontSize=12;align=center;strokeWidth=1;spacing=6;spacingTop=-4;" vertex="1" parent="1">
          <mxGeometry x="792.5" y="1005" width="100" height="80" as="geometry" />
        </mxCell>
        <mxCell id="rurIsRCA4eeCTm9-6xiH-580" value="No" style="text;html=1;align=center;verticalAlign=middle;resizable=0;points=[];autosize=1;strokeColor=none;fillColor=none;" vertex="1" parent="1">
          <mxGeometry x="837.5" y="1085" width="40" height="30" as="geometry" />
        </mxCell>
        <mxCell id="rurIsRCA4eeCTm9-6xiH-581" value="&lt;div&gt;Invoice&lt;/div&gt;Exists" style="rounded=1;whiteSpace=wrap;html=1;fontSize=12;glass=0;strokeWidth=1;shadow=0;" vertex="1" parent="1">
          <mxGeometry x="807.5" y="1115" width="70" height="40" as="geometry" />
        </mxCell>
        <mxCell id="rurIsRCA4eeCTm9-6xiH-582" value="" style="endArrow=classic;html=1;rounded=0;" edge="1" parent="1">
          <mxGeometry width="50" height="50" relative="1" as="geometry">
            <mxPoint x="842.5" y="1085" as="sourcePoint" />
            <mxPoint x="842.5" y="1115" as="targetPoint" />
          </mxGeometry>
        </mxCell>
        <mxCell id="rurIsRCA4eeCTm9-6xiH-583" value="Yes" style="text;html=1;align=center;verticalAlign=middle;resizable=0;points=[];autosize=1;strokeColor=none;fillColor=none;" vertex="1" parent="1">
          <mxGeometry x="895" y="1015" width="40" height="30" as="geometry" />
        </mxCell>
        <mxCell id="rurIsRCA4eeCTm9-6xiH-584" value="" style="endArrow=classic;html=1;rounded=0;entryX=0.5;entryY=0;entryDx=0;entryDy=0;exitX=0.5;exitY=1;exitDx=0;exitDy=0;" edge="1" parent="1" source="rurIsRCA4eeCTm9-6xiH-577" target="rurIsRCA4eeCTm9-6xiH-579">
          <mxGeometry width="50" height="50" relative="1" as="geometry">
            <mxPoint x="843" y="985" as="sourcePoint" />
            <mxPoint x="844.5" y="1005" as="targetPoint" />
          </mxGeometry>
        </mxCell>
        <mxCell id="rurIsRCA4eeCTm9-6xiH-585" style="edgeStyle=orthogonalEdgeStyle;rounded=0;orthogonalLoop=1;jettySize=auto;html=1;exitX=0.5;exitY=0;exitDx=0;exitDy=0;entryX=0.5;entryY=1;entryDx=0;entryDy=0;" edge="1" parent="1" source="rurIsRCA4eeCTm9-6xiH-586" target="rurIsRCA4eeCTm9-6xiH-587">
          <mxGeometry relative="1" as="geometry" />
        </mxCell>
        <mxCell id="rurIsRCA4eeCTm9-6xiH-586" value="&lt;div&gt;Invoice&lt;/div&gt;&lt;div&gt;Deleted&lt;/div&gt;" style="rounded=1;whiteSpace=wrap;html=1;fontSize=12;glass=0;strokeWidth=1;shadow=0;" vertex="1" parent="1">
          <mxGeometry x="945" y="1025" width="70" height="40" as="geometry" />
        </mxCell>
        <mxCell id="rurIsRCA4eeCTm9-6xiH-587" value="End" style="ellipse;whiteSpace=wrap;html=1;" vertex="1" parent="1">
          <mxGeometry x="950" y="945" width="60" height="36" as="geometry" />
        </mxCell>
        <mxCell id="rurIsRCA4eeCTm9-6xiH-608" value="&lt;div&gt;Contract&lt;/div&gt;&lt;div&gt;Deleted&lt;/div&gt;" style="rounded=1;whiteSpace=wrap;html=1;fontSize=12;glass=0;strokeWidth=1;shadow=0;" vertex="1" parent="1">
          <mxGeometry x="1212.5" y="500" width="70" height="40" as="geometry" />
        </mxCell>
        <mxCell id="rurIsRCA4eeCTm9-6xiH-609" value="No" style="text;html=1;align=center;verticalAlign=middle;resizable=0;points=[];autosize=1;strokeColor=none;fillColor=none;" vertex="1" parent="1">
          <mxGeometry x="1280" y="419" width="40" height="30" as="geometry" />
        </mxCell>
        <mxCell id="rurIsRCA4eeCTm9-6xiH-610" style="edgeStyle=orthogonalEdgeStyle;rounded=0;orthogonalLoop=1;jettySize=auto;html=1;exitX=1;exitY=0.5;exitDx=0;exitDy=0;entryX=0;entryY=0.5;entryDx=0;entryDy=0;" edge="1" parent="1" source="rurIsRCA4eeCTm9-6xiH-611" target="rurIsRCA4eeCTm9-6xiH-613">
          <mxGeometry relative="1" as="geometry" />
        </mxCell>
        <mxCell id="rurIsRCA4eeCTm9-6xiH-611" value="Delete&amp;nbsp;&lt;div&gt;Contract&lt;/div&gt;" style="rounded=1;whiteSpace=wrap;html=1;fontSize=12;glass=0;strokeWidth=1;shadow=0;" vertex="1" parent="1">
          <mxGeometry x="930" y="424" width="70" height="40" as="geometry" />
        </mxCell>
        <mxCell id="rurIsRCA4eeCTm9-6xiH-612" style="edgeStyle=orthogonalEdgeStyle;rounded=0;orthogonalLoop=1;jettySize=auto;html=1;exitX=1;exitY=0.5;exitDx=0;exitDy=0;entryX=0;entryY=0.5;entryDx=0;entryDy=0;" edge="1" parent="1" source="rurIsRCA4eeCTm9-6xiH-613" target="rurIsRCA4eeCTm9-6xiH-616">
          <mxGeometry relative="1" as="geometry" />
        </mxCell>
        <mxCell id="rurIsRCA4eeCTm9-6xiH-613" value="Goes for Approval to Department Manager" style="rounded=1;whiteSpace=wrap;html=1;" vertex="1" parent="1">
          <mxGeometry x="1040" y="419" width="120" height="50" as="geometry" />
        </mxCell>
        <mxCell id="rurIsRCA4eeCTm9-6xiH-614" style="edgeStyle=orthogonalEdgeStyle;rounded=0;orthogonalLoop=1;jettySize=auto;html=1;exitX=1;exitY=0.5;exitDx=0;exitDy=0;" edge="1" parent="1" source="rurIsRCA4eeCTm9-6xiH-616">
          <mxGeometry relative="1" as="geometry">
            <mxPoint x="1320" y="444" as="targetPoint" />
          </mxGeometry>
        </mxCell>
        <mxCell id="rurIsRCA4eeCTm9-6xiH-615" style="edgeStyle=orthogonalEdgeStyle;rounded=0;orthogonalLoop=1;jettySize=auto;html=1;exitX=0.5;exitY=1;exitDx=0;exitDy=0;entryX=0.5;entryY=0;entryDx=0;entryDy=0;" edge="1" parent="1" source="rurIsRCA4eeCTm9-6xiH-616" target="rurIsRCA4eeCTm9-6xiH-608">
          <mxGeometry relative="1" as="geometry" />
        </mxCell>
        <mxCell id="rurIsRCA4eeCTm9-6xiH-616" value="Deletion&amp;nbsp;&lt;div&gt;Approved&lt;/div&gt;" style="rhombus;whiteSpace=wrap;html=1;shadow=0;fontFamily=Helvetica;fontSize=12;align=center;strokeWidth=1;spacing=6;spacingTop=-4;" vertex="1" parent="1">
          <mxGeometry x="1197.5" y="404" width="100" height="80" as="geometry" />
        </mxCell>
        <mxCell id="rurIsRCA4eeCTm9-6xiH-617" value="Contract&lt;br&gt;Exists" style="rounded=1;whiteSpace=wrap;html=1;fontSize=12;glass=0;strokeWidth=1;shadow=0;" vertex="1" parent="1">
          <mxGeometry x="1320" y="425" width="70" height="40" as="geometry" />
        </mxCell>
        <mxCell id="rurIsRCA4eeCTm9-6xiH-618" value="Yes" style="text;html=1;align=center;verticalAlign=middle;resizable=0;points=[];autosize=1;strokeColor=none;fillColor=none;" vertex="1" parent="1">
          <mxGeometry x="1197.5" y="469" width="40" height="30" as="geometry" />
        </mxCell>
        <mxCell id="rurIsRCA4eeCTm9-6xiH-638" style="edgeStyle=orthogonalEdgeStyle;rounded=0;orthogonalLoop=1;jettySize=auto;html=1;exitX=0.5;exitY=0;exitDx=0;exitDy=0;entryX=0.5;entryY=1;entryDx=0;entryDy=0;" edge="1" parent="1" source="rurIsRCA4eeCTm9-6xiH-628" target="rurIsRCA4eeCTm9-6xiH-629">
          <mxGeometry relative="1" as="geometry" />
        </mxCell>
        <mxCell id="rurIsRCA4eeCTm9-6xiH-639" value="" style="edgeStyle=orthogonalEdgeStyle;rounded=0;orthogonalLoop=1;jettySize=auto;html=1;" edge="1" parent="1" source="rurIsRCA4eeCTm9-6xiH-628" target="rurIsRCA4eeCTm9-6xiH-631">
          <mxGeometry relative="1" as="geometry" />
        </mxCell>
        <mxCell id="rurIsRCA4eeCTm9-6xiH-628" value="Issues&lt;br&gt;Identified" style="rhombus;whiteSpace=wrap;html=1;shadow=0;fontFamily=Helvetica;fontSize=12;align=center;strokeWidth=1;spacing=6;spacingTop=-4;" vertex="1" parent="1">
          <mxGeometry x="835" y="338" width="92.5" height="74" as="geometry" />
        </mxCell>
        <mxCell id="rurIsRCA4eeCTm9-6xiH-637" style="edgeStyle=orthogonalEdgeStyle;rounded=0;orthogonalLoop=1;jettySize=auto;html=1;exitX=0.75;exitY=0;exitDx=0;exitDy=0;" edge="1" parent="1" source="rurIsRCA4eeCTm9-6xiH-629">
          <mxGeometry relative="1" as="geometry">
            <mxPoint x="898" y="290" as="targetPoint" />
          </mxGeometry>
        </mxCell>
        <mxCell id="rurIsRCA4eeCTm9-6xiH-629" value="Report Issue" style="rounded=1;whiteSpace=wrap;html=1;fontSize=12;glass=0;strokeWidth=1;shadow=0;" vertex="1" parent="1">
          <mxGeometry x="840" y="270" width="82.5" height="40" as="geometry" />
        </mxCell>
        <mxCell id="rurIsRCA4eeCTm9-6xiH-631" value="Not Found" style="rounded=1;whiteSpace=wrap;html=1;fontSize=12;glass=0;strokeWidth=1;shadow=0;" vertex="1" parent="1">
          <mxGeometry x="970" y="355" width="70" height="40" as="geometry" />
        </mxCell>
        <mxCell id="rurIsRCA4eeCTm9-6xiH-633" value="No" style="text;html=1;align=center;verticalAlign=middle;resizable=0;points=[];autosize=1;strokeColor=none;fillColor=none;" vertex="1" parent="1">
          <mxGeometry x="922.5" y="350" width="40" height="30" as="geometry" />
        </mxCell>
        <mxCell id="rurIsRCA4eeCTm9-6xiH-642" value="Yes" style="text;html=1;align=center;verticalAlign=middle;resizable=0;points=[];autosize=1;strokeColor=none;fillColor=none;" vertex="1" parent="1">
          <mxGeometry x="833.5" y="320" width="40" height="30" as="geometry" />
        </mxCell>
        <mxCell id="rurIsRCA4eeCTm9-6xiH-643" value="" style="endArrow=classic;html=1;rounded=0;exitX=0.5;exitY=1;exitDx=0;exitDy=0;" edge="1" parent="1" source="rurIsRCA4eeCTm9-6xiH-525">
          <mxGeometry width="50" height="50" relative="1" as="geometry">
            <mxPoint x="697" y="435" as="sourcePoint" />
            <mxPoint x="697" y="475" as="targetPoint" />
          </mxGeometry>
        </mxCell>
        <mxCell id="rurIsRCA4eeCTm9-6xiH-646" value="" style="endArrow=classic;html=1;rounded=0;" edge="1" parent="1">
          <mxGeometry width="50" height="50" relative="1" as="geometry">
            <mxPoint x="519.5" y="50" as="sourcePoint" />
            <mxPoint x="519.5" y="100" as="targetPoint" />
          </mxGeometry>
        </mxCell>
      </root>
    </mxGraphModel>
  </diagram>
</mxfile>
